# xmcd
#
# Track frame offsets: 
#        150
#        16355
#        24758
#        31493
#        38692
#        47132
#        65131
#        86092
#        97538
#        106157
#        114912
#        132114
#        144956
#        151988
#        162256
#        177138
#        187911
#
# Disc length: 2741 seconds
#
# Revision: 2
# Processed by: cddbd v1.5.2PL0 Copyright (c) Steve Scherf et al.
# Submitted via: ExactAudioCopy v1.1
#
DISCID=c50ab311
DTITLE=Manu Chao - Esperanza
DYEAR=2001
DGENRE=Ska
TTITLE0=Merry Blues
TTITLE1=Bixo
TTITLE2=Eldorado 1997
TTITLE3=Promiscuity
TTITLE4=La Primavera
TTITLE5=Me Gustas Tu
TTITLE6=Denia
TTITLE7=Mi Vida
TTITLE8=Trapped By Love
TTITLE9=Le Rendez Vous
TTITLE10=Mr Bobby
TTITLE11=Papito
TTITLE12=La Chinita
TTITLE13=La Marea
TTITLE14=Homens
TTITLE15=La Vacaloca
TTITLE16=Infinita Tristeza
EXTD=
EXTT0=
EXTT1=
EXTT2=
EXTT3=
EXTT4=
EXTT5=
EXTT6=
EXTT7=
EXTT8=
EXTT9=
EXTT10=
EXTT11=
EXTT12=
EXTT13=
EXTT14=
EXTT15=
EXTT16=
PLAYORDER=
